<?xml version="1.0" standalone="no"?>
<!DOCTYPE svg PUBLIC "-//W3C//DTD SVG 20010904//EN"
 "http://www.w3.org/TR/2001/REC-SVG-20010904/DTD/svg10.dtd">
<svg version="1.0" xmlns="http://www.w3.org/2000/svg"
 width="1000.000000pt" height="1000.000000pt" viewBox="0 0 1000.000000 1000.000000"
 preserveAspectRatio="xMidYMid meet">
<metadata>
Created by potrace 1.14, written by Peter Selinger 2001-2017
</metadata>
<g transform="translate(0.000000,1000.000000) scale(0.100000,-0.100000)"
fill="#000000" stroke="none">
<path d="M0 5000 l0 -5000 5000 0 5000 0 0 5000 0 5000 -5000 0 -5000 0 0
-5000z m3213 4195 c101 -29 170 -61 162 -75 -3 -5 0 -7 8 -4 19 7 121 -70 188
-143 290 -315 274 -807 -36 -1102 -43 -41 -81 -69 -87 -65 -6 4 -8 3 -5 -3 14
-23 -214 -130 -249 -116 -11 4 -15 2 -11 -4 10 -16 -27 -23 -146 -30 -104 -6
-253 10 -243 25 2 4 -10 7 -28 8 -39 0 -212 84 -209 101 2 7 -3 10 -10 8 -16
-7 -109 74 -101 87 4 6 3 8 -3 5 -10 -6 -60 42 -101 97 -24 31 -29 51 -10 40
7 -4 8 -3 4 5 -4 6 -12 9 -17 5 -12 -7 -73 124 -95 203 -25 93 -30 266 -10
356 28 124 104 296 125 282 5 -2 8 3 7 13 0 9 5 16 12 14 8 -1 11 2 7 8 -15
24 192 209 216 194 7 -4 9 -3 6 3 -7 12 66 54 138 78 150 51 333 55 488 10z
m3912 10 c78 -20 186 -65 180 -75 -3 -4 3 -7 13 -6 9 0 16 -5 14 -12 -1 -8 2
-11 8 -7 25 15 230 -171 215 -196 -5 -8 -4 -10 3 -5 23 14 128 -189 117 -227
-5 -16 -4 -18 3 -8 19 27 37 -97 36 -244 0 -126 -3 -148 -28 -220 -15 -44 -43
-110 -62 -146 -40 -75 -130 -182 -146 -173 -6 4 -8 2 -4 -4 3 -6 -17 -31 -46
-56 -50 -44 -77 -59 -62 -34 4 7 3 8 -5 4 -6 -4 -9 -12 -5 -17 8 -13 -164 -92
-203 -93 -17 -1 -29 -4 -27 -7 7 -11 -108 -29 -189 -29 -93 0 -209 18 -201 31
3 5 -1 6 -9 3 -33 -12 -264 97 -250 119 3 6 1 7 -5 3 -12 -7 -124 92 -117 104
3 4 -3 14 -13 21 -16 13 -16 12 -3 -6 7 -11 -1 -4 -19 15 -127 141 -199 385
-172 594 13 103 62 253 81 248 7 -1 10 2 6 8 -10 17 49 111 116 184 68 74 173
151 191 140 7 -5 8 -3 3 6 -6 10 -4 12 9 7 10 -4 15 -3 11 3 -11 18 142 73
250 91 70 11 239 3 310 -16z m-2988 -1699 c81 -17 228 -77 228 -93 0 -6 4 -15
9 -20 5 -5 6 -3 2 5 -28 49 114 -57 189 -141 30 -34 53 -68 50 -74 -2 -7 1
-12 7 -10 6 1 13 -4 16 -12 3 -9 0 -11 -8 -6 -9 5 -11 4 -6 -4 4 -6 11 -9 16
-6 18 11 105 -194 97 -227 -3 -10 -1 -16 3 -13 27 17 31 -246 5 -349 -32 -128
-109 -287 -130 -268 -5 4 -5 2 -1 -5 3 -6 -16 -38 -44 -72 -52 -62 -82 -86
-95 -73 -3 4 -5 1 -3 -7 5 -22 -151 -116 -240 -145 -291 -97 -597 -26 -813
186 -170 167 -240 364 -230 643 2 78 82 312 101 300 4 -3 7 3 6 13 0 9 5 16
12 14 8 -1 11 2 7 8 -9 15 73 122 87 114 6 -4 8 -3 5 3 -9 15 71 85 86 77 7
-4 9 -4 5 1 -9 9 9 35 24 35 5 0 6 -6 2 -12 -4 -8 -3 -10 2 -5 5 5 9 14 9 20
0 16 166 99 188 93 9 -2 15 0 12 4 -3 5 21 14 52 20 32 7 63 14 68 15 30 10
223 3 282 -9z m2010 -6 c24 -7 41 -16 38 -20 -3 -5 3 -6 12 -4 22 6 188 -77
188 -93 0 -6 4 -15 9 -20 5 -5 6 -3 2 5 -15 25 11 10 67 -39 31 -28 54 -56 51
-61 -4 -7 -2 -8 4 -4 14 8 84 -82 75 -98 -3 -6 -3 -8 2 -4 11 11 38 -29 29
-44 -4 -6 -3 -8 3 -5 25 16 111 -246 99 -304 -3 -16 -1 -29 4 -29 6 0 10 -22
10 -50 0 -27 -3 -50 -7 -50 -5 0 -8 -26 -9 -58 -3 -161 -135 -393 -291 -511
-373 -283 -891 -198 -1148 188 -61 93 -118 249 -111 306 3 25 2 33 -3 20 -13
-32 -21 100 -11 185 5 41 9 81 10 88 0 7 3 11 8 9 4 -3 8 9 9 27 3 65 94 253
115 240 6 -4 8 -3 5 4 -15 23 153 196 184 190 7 -2 13 3 14 10 0 13 23 32 38
32 5 0 5 -5 1 -12 -4 -7 -3 -8 5 -4 6 4 9 12 5 17 -7 12 101 61 138 63 14 0
24 4 22 8 -3 4 5 10 18 13 13 3 41 9 63 15 52 12 298 5 352 -10z m-5009 -1695
c132 -15 289 -89 412 -195 62 -53 145 -165 134 -181 -4 -8 -3 -9 4 -5 22 14
90 -154 111 -278 13 -73 14 -193 2 -200 -5 -3 -7 -14 -4 -25 13 -50 -93 -331
-119 -315 -6 4 -8 3 -5 -3 8 -13 -50 -96 -62 -89 -4 3 -19 -7 -32 -22 l-24
-27 28 24 c15 14 27 20 27 14 0 -17 -118 -115 -130 -108 -6 4 -9 1 -8 -7 4
-16 -180 -111 -199 -103 -8 2 -11 1 -8 -4 10 -17 -146 -45 -245 -45 -97 0
-255 28 -245 44 3 4 -3 6 -12 4 -22 -6 -188 77 -188 93 0 6 -4 15 -9 20 -5 5
-6 2 -1 -6 14 -25 -12 -7 -79 52 -36 32 -66 63 -66 70 0 6 17 -5 37 -24 l38
-34 -34 37 c-19 21 -38 35 -42 32 -10 -6 -62 63 -56 74 8 11 -10 37 -25 37
-16 0 -81 160 -82 202 -1 17 -4 29 -7 27 -11 -6 -19 65 -19 161 0 101 9 167
20 160 5 -3 6 3 3 13 -7 27 55 187 97 250 53 79 109 142 123 139 7 -1 11 3 10
10 -1 6 21 29 50 51 116 89 258 147 400 162 71 7 99 7 205 -5z m2028 -10 c89
-20 175 -55 168 -67 -5 -7 -2 -8 5 -4 15 9 155 -80 146 -93 -2 -5 3 -15 13
-22 15 -13 16 -12 3 4 -8 9 -9 17 -3 17 35 0 212 -245 196 -271 -4 -7 -3 -9 4
-5 11 7 40 -63 63 -154 23 -89 18 -289 -9 -383 -32 -112 -130 -296 -151 -283
-5 3 -15 -2 -22 -11 -10 -12 -10 -14 -1 -9 6 4 12 3 12 -2 0 -16 -101 -103
-111 -96 -5 3 -8 0 -7 -8 2 -7 -5 -13 -14 -13 -9 0 -20 -4 -25 -9 -5 -5 -2 -6
6 -1 10 6 12 4 7 -4 -5 -7 -14 -10 -22 -7 -8 3 -13 0 -11 -6 3 -14 -123 -80
-140 -73 -7 2 -13 0 -13 -6 0 -6 -7 -8 -16 -5 -8 3 -12 2 -9 -3 3 -5 -30 -18
-72 -27 -98 -23 -254 -23 -346 0 -127 30 -296 113 -281 138 4 7 3 8 -5 4 -17
-11 -110 71 -167 147 -56 74 -127 215 -120 240 2 9 1 15 -4 12 -17 -11 -35
104 -35 230 0 126 18 241 35 230 5 -3 6 5 2 17 -3 14 -1 19 6 14 8 -4 10 -2 6
7 -5 15 51 136 81 172 9 11 13 13 9 5 -4 -9 -3 -12 2 -7 5 5 9 16 9 25 0 9 6
16 13 14 8 -1 11 2 8 7 -7 10 90 121 106 121 5 0 6 -6 2 -12 -5 -10 -3 -10 7
0 8 7 14 18 14 25 0 20 155 106 240 133 134 42 283 49 421 19z m3912 4 c303
-47 561 -303 629 -623 21 -99 13 -277 -17 -371 -150 -473 -657 -699 -1100
-489 -321 152 -498 501 -434 856 42 233 197 441 412 552 170 87 305 107 510
75z m1940 6 c256 -28 517 -233 614 -482 46 -118 61 -212 56 -338 -11 -231
-114 -432 -296 -577 -144 -114 -299 -168 -487 -169 -543 -1 -916 515 -750
1039 56 177 210 356 380 444 107 55 175 76 281 87 78 8 96 8 202 -4z m-8664
-1191 c3 -8 2 -12 -4 -9 -6 3 -10 10 -10 16 0 14 7 11 14 -7z m3839 -539 c191
-55 335 -162 445 -329 91 -139 142 -347 122 -501 -20 -159 -58 -260 -141 -381
-307 -444 -981 -443 -1289 2 -98 142 -140 279 -140 457 0 213 78 404 224 550
120 120 265 195 443 227 83 15 239 4 336 -25z m1972 0 c253 -73 447 -260 531
-510 30 -91 44 -239 31 -348 -32 -284 -238 -541 -513 -640 -339 -122 -723 2
-919 298 -63 95 -96 172 -121 282 -23 104 -15 289 16 388 93 294 328 500 630
554 90 16 243 6 345 -24z m-3017 -1691 c210 -43 406 -181 516 -362 215 -355
115 -826 -227 -1061 -64 -44 -176 -95 -257 -117 -90 -25 -290 -25 -380 0 -374
102 -617 432 -597 811 16 311 217 585 510 697 124 48 298 60 435 32z m3987 -8
c438 -119 689 -587 543 -1013 -48 -139 -87 -202 -194 -310 -80 -79 -105 -98
-195 -142 -143 -70 -206 -85 -359 -85 -146 0 -209 14 -345 79 -204 98 -358
283 -417 502 -30 113 -30 299 1 407 80 286 310 506 596 570 87 20 283 15 370
-8z"/>
<path d="M2444 8998 l-19 -23 23 19 c21 18 27 26 19 26 -2 0 -12 -10 -23 -22z"/>
<path d="M2231 8624 c0 -11 3 -14 6 -6 3 7 2 16 -1 19 -3 4 -6 -2 -5 -13z"/>
<path d="M2222 8570 c0 -14 2 -19 5 -12 2 6 2 18 0 25 -3 6 -5 1 -5 -13z"/>
<path d="M2214 8440 c0 -52 1 -74 3 -47 2 26 2 68 0 95 -2 26 -3 4 -3 -48z"/>
<path d="M2222 8305 c0 -16 2 -22 5 -12 2 9 2 23 0 30 -3 6 -5 -1 -5 -18z"/>
<path d="M3564 7918 l-19 -23 23 19 c21 18 27 26 19 26 -2 0 -12 -10 -23 -22z"/>
<path d="M2838 7673 c7 -3 16 -2 19 1 4 3 -2 6 -13 5 -11 0 -14 -3 -6 -6z"/>
<path d="M3128 7673 c7 -3 16 -2 19 1 4 3 -2 6 -13 5 -11 0 -14 -3 -6 -6z"/>
<path d="M2938 7663 c28 -2 76 -2 105 0 28 2 5 3 -53 3 -58 0 -81 -1 -52 -3z"/>
<path d="M7465 9000 c10 -11 20 -20 23 -20 3 0 -3 9 -13 20 -10 11 -20 20 -23
20 -3 0 3 -9 13 -20z"/>
<path d="M7681 8624 c0 -11 3 -14 6 -6 3 7 2 16 -1 19 -3 4 -6 -2 -5 -13z"/>
<path d="M7692 8570 c0 -14 2 -19 5 -12 2 6 2 18 0 25 -3 6 -5 1 -5 -13z"/>
<path d="M7704 8440 c0 -52 1 -74 3 -47 2 26 2 68 0 95 -2 26 -3 4 -3 -48z"/>
<path d="M7692 8300 c0 -14 2 -19 5 -12 2 6 2 18 0 25 -3 6 -5 1 -5 -13z"/>
<path d="M6778 7673 c7 -3 16 -2 19 1 4 3 -2 6 -13 5 -11 0 -14 -3 -6 -6z"/>
<path d="M7068 7673 c7 -3 16 -2 19 1 4 3 -2 6 -13 5 -11 0 -14 -3 -6 -6z"/>
<path d="M6878 7663 c28 -2 76 -2 105 0 28 2 5 3 -53 3 -58 0 -81 -1 -52 -3z"/>
<path d="M3923 7503 c32 -2 81 -2 110 0 29 2 3 3 -58 3 -60 0 -84 -1 -52 -3z"/>
<path d="M3818 7493 c6 -2 18 -2 25 0 6 3 1 5 -13 5 -14 0 -19 -2 -12 -5z"/>
<path d="M4108 7493 c6 -2 18 -2 25 0 6 3 1 5 -13 5 -14 0 -19 -2 -12 -5z"/>
<path d="M3555 7390 c-3 -6 1 -7 9 -4 18 7 21 14 7 14 -6 0 -13 -4 -16 -10z"/>
<path d="M4742 6835 c0 -16 2 -22 5 -12 2 9 2 23 0 30 -3 6 -5 -1 -5 -18z"/>
<path d="M4753 6735 c0 -22 2 -30 4 -17 2 12 2 30 0 40 -3 9 -5 -1 -4 -23z"/>
<path d="M4742 6625 c0 -16 2 -22 5 -12 2 9 2 23 0 30 -3 6 -5 -1 -5 -18z"/>
<path d="M5893 7503 c32 -2 81 -2 110 0 29 2 3 3 -58 3 -60 0 -84 -1 -52 -3z"/>
<path d="M5788 7493 c6 -2 18 -2 25 0 6 3 1 5 -13 5 -14 0 -19 -2 -12 -5z"/>
<path d="M6078 7493 c6 -2 18 -2 25 0 6 3 1 5 -13 5 -14 0 -19 -2 -12 -5z"/>
<path d="M6340 7396 c0 -2 7 -7 16 -10 8 -3 12 -2 9 4 -6 10 -25 14 -25 6z"/>
<path d="M5359 7243 c-13 -16 -12 -17 4 -4 9 7 17 15 17 17 0 8 -8 3 -21 -13z"/>
<path d="M5171 6834 c0 -11 3 -14 6 -6 3 7 2 16 -1 19 -3 4 -6 -2 -5 -13z"/>
<path d="M5162 6730 c0 -14 2 -19 5 -12 2 6 2 18 0 25 -3 6 -5 1 -5 -13z"/>
<path d="M1696 5397 c3 -10 9 -15 12 -12 3 3 0 11 -7 18 -10 9 -11 8 -5 -6z"/>
<path d="M243 5090 c0 -30 2 -43 4 -27 2 15 2 39 0 55 -2 15 -4 2 -4 -28z"/>
<path d="M243 4965 c0 -27 2 -38 4 -22 2 15 2 37 0 50 -2 12 -4 0 -4 -28z"/>
<path d="M848 4263 c6 -2 18 -2 25 0 6 3 1 5 -13 5 -14 0 -19 -2 -12 -5z"/>
<path d="M1168 4263 c6 -2 18 -2 25 0 6 3 1 5 -13 5 -14 0 -19 -2 -12 -5z"/>
<path d="M918 4253 c12 -2 30 -2 40 0 9 3 -1 5 -23 4 -22 0 -30 -2 -17 -4z"/>
<path d="M1083 4253 c9 -2 25 -2 35 0 9 3 1 5 -18 5 -19 0 -27 -2 -17 -5z"/>
<path d="M2222 5160 c0 -14 2 -19 5 -12 2 6 2 18 0 25 -3 6 -5 1 -5 -13z"/>
<path d="M2214 5025 c0 -49 1 -71 3 -48 2 23 2 64 0 90 -2 26 -3 8 -3 -42z"/>
<path d="M2222 4890 c0 -14 2 -19 5 -12 2 6 2 18 0 25 -3 6 -5 1 -5 -13z"/>
<path d="M2410 4507 c0 -2 15 -16 33 -33 l32 -29 -29 33 c-28 30 -36 37 -36
29z"/>
<path d="M3188 4273 c7 -3 16 -2 19 1 4 3 -2 6 -13 5 -11 0 -14 -3 -6 -6z"/>
<path d="M2828 4263 c7 -3 16 -2 19 1 4 3 -2 6 -13 5 -11 0 -14 -3 -6 -6z"/>
<path d="M3138 4263 c7 -3 16 -2 19 1 4 3 -2 6 -13 5 -11 0 -14 -3 -6 -6z"/>
<path d="M2888 4253 c12 -2 30 -2 40 0 9 3 -1 5 -23 4 -22 0 -30 -2 -17 -4z"/>
<path d="M3058 4253 c12 -2 30 -2 40 0 9 3 -1 5 -23 4 -22 0 -30 -2 -17 -4z"/>
</g>
</svg>
